<?xml version="1.0" encoding="utf-8"?>
<!-- Generator: Adobe Illustrator 19.2.1, SVG Export Plug-In . SVG Version: 6.00 Build 0)  -->
<svg version="1.1" id="Layer_1" xmlns="http://www.w3.org/2000/svg" xmlns:xlink="http://www.w3.org/1999/xlink" x="0px" y="0px"
	 viewBox="0 0 82.17 82.17" enable-background="new 0 0 82.17 82.17" xml:space="preserve">
<g>
	<g>
		<path fill="#F3F4F4" d="M41.09,80.59c-21.78,0-39.5-17.72-39.5-39.5c0-21.78,17.72-39.5,39.5-39.5s39.5,17.72,39.5,39.5
			C80.59,62.87,62.87,80.59,41.09,80.59z M41.09,3.58c-20.68,0-37.5,16.82-37.5,37.5s16.82,37.5,37.5,37.5s37.5-16.82,37.5-37.5
			S61.76,3.58,41.09,3.58z"/>
	</g>
	<g>
		<g>
			<g>
				<g>
					<g>
						<path fill="#F3F4F4" d="M41.92,70.32c-0.49,0-1-0.43-1-0.97V29.9c0-0.53,0.51-0.97,1-0.97s1,0.43,1,0.97v39.45
							C42.92,69.88,42.41,70.32,41.92,70.32z"/>
					</g>
				</g>
			</g>
			<g>
				<g>
					<g>
						<path fill="#F3F4F4" d="M42.32,48.4c-0.28,0-0.55-0.14-0.73-0.42c-0.29-0.45-0.2-1.08,0.2-1.41l9.1-7.44
							c0.4-0.33,0.96-0.23,1.25,0.22c0.29,0.45,0.2,1.08-0.2,1.41l-9.1,7.44C42.69,48.34,42.5,48.4,42.32,48.4z"/>
					</g>
				</g>
			</g>
			<g>
				<g>
					<g>
						<path fill="#F3F4F4" d="M41.64,41.26c-0.15,0-0.31-0.04-0.45-0.13L33,35.71c-0.36-0.24-0.45-0.71-0.2-1.06
							c0.25-0.35,0.74-0.43,1.1-0.2l8.2,5.42c0.36,0.24,0.45,0.71,0.2,1.06C42.14,41.15,41.9,41.26,41.64,41.26z"/>
					</g>
				</g>
			</g>
		</g>
		<g>
			<g>
				<g>
					<path fill="#F3F4F4" d="M41.78,61.26c-0.06,0-0.11,0-0.17-0.01c-0.17-0.03-16.68-2.98-15.69-22.73
						C26.9,19.02,40.8,13.24,41.4,13.01c0.52-0.21,1.12,0.04,1.33,0.55c0.21,0.51-0.04,1.1-0.56,1.3c-0.03,0.01-3.37,1.39-6.77,4.99
						c-4.55,4.82-7.05,11.14-7.44,18.77c-0.9,17.94,13.38,20.55,13.99,20.66c0.55,0.09,0.93,0.61,0.83,1.15
						C42.7,60.92,42.27,61.26,41.78,61.26z"/>
				</g>
			</g>
			<g>
				<g>
					<path fill="#F3F4F4" d="M42.7,61.26c-0.49,0-0.92-0.35-1-0.83c-0.09-0.54,0.28-1.06,0.84-1.15c0.62-0.1,14.89-2.73,13.99-20.66
						C55.6,20.38,42.44,14.91,42.31,14.86c-0.52-0.21-0.77-0.79-0.56-1.3c0.21-0.51,0.8-0.76,1.33-0.55
						c0.59,0.24,14.5,6.02,15.47,25.52c0.99,19.75-15.52,22.7-15.69,22.73C42.81,61.26,42.75,61.26,42.7,61.26z"/>
				</g>
			</g>
		</g>
	</g>
</g>
<g>
</g>
<g>
</g>
<g>
</g>
<g>
</g>
<g>
</g>
<g>
</g>
<g>
</g>
<g>
</g>
<g>
</g>
<g>
</g>
<g>
</g>
<g>
</g>
<g>
</g>
<g>
</g>
<g>
</g>
</svg>
