<?xml version="1.0" encoding="utf-8"?>
<!-- Generator: Adobe Illustrator 19.1.0, SVG Export Plug-In . SVG Version: 6.00 Build 0)  -->
<!DOCTYPE svg PUBLIC "-//W3C//DTD SVG 1.1//EN" "http://www.w3.org/Graphics/SVG/1.1/DTD/svg11.dtd">
<svg version="1.1" id="Layer_1" xmlns="http://www.w3.org/2000/svg" xmlns:xlink="http://www.w3.org/1999/xlink" x="0px" y="0px"
	 viewBox="-950 548 8 13.3" style="enable-background:new -950 548 8 13.3;" xml:space="preserve">
<style type="text/css">
	.st0{fill:#C6953E;}
</style>
<g>
	<path class="st0" d="M-942,560c0,0.7-0.6,1.3-1.3,1.3h-5.4c-0.7,0-1.3-0.6-1.3-1.3v-10.7c0-0.7,0.6-1.3,1.3-1.3h5.3
		c0.8,0,1.4,0.6,1.4,1.3V560z M-943,551c0-0.2-0.2-0.3-0.3-0.3h-5.4c-0.1,0-0.3,0.1-0.3,0.3v7.3c0,0.2,0.2,0.3,0.3,0.3h5.4
		c0.2,0,0.3-0.2,0.3-0.3V551L-943,551z M-945.2,549.3h-1.6c-0.1,0-0.2,0.1-0.2,0.2s0.1,0.2,0.2,0.2h1.7c0,0,0.1-0.1,0.1-0.2
		S-945.1,549.3-945.2,549.3z M-946,559.2c-0.5,0-0.8,0.4-0.8,0.8s0.4,0.8,0.8,0.8c0.4,0,0.8-0.4,0.8-0.8S-945.5,559.2-946,559.2z"/>
</g>
</svg>
