<?xml version="1.0" encoding="utf-8"?>
<!-- Generator: Adobe Illustrator 19.1.0, SVG Export Plug-In . SVG Version: 6.00 Build 0)  -->
<!DOCTYPE svg PUBLIC "-//W3C//DTD SVG 1.1//EN" "http://www.w3.org/Graphics/SVG/1.1/DTD/svg11.dtd">
<svg version="1.1" id="Layer_1" xmlns="http://www.w3.org/2000/svg" xmlns:xlink="http://www.w3.org/1999/xlink" x="0px" y="0px"
	 viewBox="-464 266 30 30" style="enable-background:new -464 266 30 30;" xml:space="preserve">
<style type="text/css">
	.st0{fill:#FFFFFF;}
	.st1{fill:#C6953E;}
</style>
<circle class="st0" cx="-449" cy="281" r="15"/>
<path class="st1" d="M-442,277.9c-0.5,0.2-1,0.4-1.6,0.4c0.6-0.3,1-0.9,1.2-1.5c-0.5,0.3-1.1,0.5-1.7,0.7c-0.5-0.5-1.2-0.9-2-0.9
	c-1.5,0-2.7,1.2-2.7,2.7c0,0.2,0,0.4,0.1,0.6c-2.3-0.1-4.3-1.2-5.6-2.8c-0.2,0.4-0.4,0.9-0.4,1.4c0,0.9,0.5,1.8,1.2,2.3
	c-0.4,0-0.9-0.1-1.2-0.3l0,0c0,1.3,0.9,2.4,2.2,2.7c-0.2,0.1-0.5,0.1-0.7,0.1c-0.2,0-0.3,0-0.5,0c0.3,1.1,1.4,1.9,2.5,1.9
	c-0.9,0.7-2.1,1.2-3.4,1.2c-0.2,0-0.4,0-0.6,0c1.2,0.8,2.6,1.2,4.2,1.2c5,0,7.7-4.1,7.7-7.7c0-0.1,0-0.2,0-0.4
	C-442.8,278.9-442.4,278.4-442,277.9z"/>
</svg>
