<?xml version="1.0" encoding="utf-8"?>
<!-- Generator: Adobe Illustrator 19.1.0, SVG Export Plug-In . SVG Version: 6.00 Build 0)  -->
<!DOCTYPE svg PUBLIC "-//W3C//DTD SVG 1.1//EN" "http://www.w3.org/Graphics/SVG/1.1/DTD/svg11.dtd">
<svg version="1.1" id="Layer_1" xmlns="http://www.w3.org/2000/svg" xmlns:xlink="http://www.w3.org/1999/xlink" x="0px" y="0px"
	 viewBox="-464 266 30 30" style="enable-background:new -464 266 30 30;" xml:space="preserve">
<style type="text/css">
	.st0{fill:#FFFFFF;}
	.st1{fill:#C6953E;}
</style>
<circle class="st0" cx="-449" cy="281" r="15"/>
<path class="st1" d="M-454.4,285.3h2.7v-7.5h-2.7V285.3z M-453,276.9L-453,276.9c0.9,0,1.4-0.6,1.4-1.3c0-0.7-0.5-1.3-1.4-1.3
	c-0.8,0-1.4,0.6-1.4,1.3C-454.4,276.3-453.8,276.9-453,276.9z M-445.7,277.8c-1.3,0-2,0.9-2.3,1.3h-0.1v-1.3h-2.7v7.5h2.7v-4.1
	c0-0.2,0.1-0.4,0.2-0.6c0.2-0.4,0.6-0.9,1.3-0.9c0.9,0,1.2,0.7,1.2,1.7v3.9h2.7v-4.2C-442.8,278.8-444.1,277.8-445.7,277.8z"/>
</svg>
