<?xml version="1.0" encoding="utf-8"?>
<!-- Generator: Adobe Illustrator 19.1.0, SVG Export Plug-In . SVG Version: 6.00 Build 0)  -->
<!DOCTYPE svg PUBLIC "-//W3C//DTD SVG 1.1//EN" "http://www.w3.org/Graphics/SVG/1.1/DTD/svg11.dtd">
<svg version="1.1" id="Layer_1" xmlns="http://www.w3.org/2000/svg" xmlns:xlink="http://www.w3.org/1999/xlink" x="0px" y="0px"
	 viewBox="-474 272.4 10.9 16.3" style="enable-background:new -474 272.4 10.9 16.3;" xml:space="preserve">
<style type="text/css">
	.st0{enable-background:new    ;}
	.st1{fill:#C6953E;}
</style>
<g class="st0">
	<path class="st1" d="M-463.1,277.8c0,0.8-0.1,1.4-0.3,1.9l-3.9,8.2c-0.1,0.2-0.3,0.4-0.5,0.6c-0.2,0.1-0.5,0.2-0.7,0.2
		s-0.5-0.1-0.7-0.2c-0.2-0.1-0.4-0.3-0.5-0.6l-3.9-8.2c-0.2-0.5-0.4-1.1-0.4-1.9c0-1.5,0.5-2.8,1.6-3.8c1.1-1.1,2.3-1.6,3.8-1.6
		c1.5,0,2.8,0.5,3.8,1.6C-463.7,275-463.1,276.3-463.1,277.8z M-466.7,279.7c0.5-0.5,0.8-1.2,0.8-1.9s-0.3-1.4-0.8-1.9
		s-1.2-0.8-1.9-0.8c-0.7,0-1.4,0.3-1.9,0.8c-0.5,0.5-0.8,1.2-0.8,1.9s0.3,1.4,0.8,1.9c0.5,0.5,1.2,0.8,1.9,0.8
		C-467.8,280.5-467.2,280.2-466.7,279.7z"/>
</g>
</svg>
