<?xml version="1.0" encoding="utf-8"?>
<!-- Generator: Adobe Illustrator 18.1.1, SVG Export Plug-In . SVG Version: 6.00 Build 0)  -->
<!DOCTYPE svg PUBLIC "-//W3C//DTD SVG 1.1//EN" "http://www.w3.org/Graphics/SVG/1.1/DTD/svg11.dtd">
<svg version="1.1" id="Layer_1" xmlns="http://www.w3.org/2000/svg" xmlns:xlink="http://www.w3.org/1999/xlink" x="0px" y="0px"
	 viewBox="0 0 252 360" enable-background="new 0 0 252 360" xml:space="preserve">
<g>
	<g>
		<defs>
			<rect id="SVGID_1_" x="-343.9" y="436" width="2043.2" height="851.4"/>
		</defs>
		<clipPath id="SVGID_2_">
			<use xlink:href="#SVGID_1_"  overflow="visible"/>
		</clipPath>
	</g>
</g>
<g>
	<path fill="#929A9B" d="M0,167.3c1,0.4,1.9,1,2.8,1.6c4,2.4,8.1,4.8,12.3,6.9c1.8,0.9,3.7,1.4,5.7,1.3c1.1-0.1,2.1-0.5,3.2-0.9
		c2.6-1,5.1-2.3,7.6-3.5c3.1-1.6,6.3-3,9.4-4.5c0.3-0.2,0.4-0.1,0.4,0.3c0,0.8,0,1.6,0,2.4c0,0.2-0.1,0.4-0.3,0.5
		c-5,2.3-9.9,4.9-15,7.1c-1.4,0.6-2.7,1.1-4.2,1.4c-2.4,0.4-4.7,0.1-7-0.9c-3.3-1.5-6.4-3.3-9.6-5.1c-1.6-0.9-3.2-1.9-4.7-2.8
		c-0.2-0.1-0.4-0.3-0.6-0.3C0,169.6,0,168.5,0,167.3z"/>
	<path fill="#929A9B" d="M0,173.5c1,0.4,2,1.1,3,1.6c4.2,2.4,8.4,4.9,12.9,6.9c1.8,0.8,3.6,1.1,5.5,0.8c1.3-0.2,2.5-0.7,3.7-1.2
		c3.9-1.6,7.7-3.6,11.5-5.3c1.5-0.7,2.9-1.3,4.4-2c0.3-0.1,0.4-0.1,0.4,0.2c0,0.8,0,1.7,0,2.5c0,0.2-0.1,0.3-0.3,0.4
		c-5.2,2.3-10.2,4.9-15.4,7.1c-1.3,0.5-2.6,1-3.9,1.2c-2.6,0.4-5-0.1-7.4-1.2c-4.3-2-8.3-4.3-12.4-6.6c-0.6-0.4-1.2-0.8-1.9-1
		C0,175.7,0,174.6,0,173.5z"/>
	<path fill="#929A9B" d="M0,179.7c0.2-0.1,0.3,0.1,0.4,0.1c3.6,2,7.2,4.1,10.8,6c1.4,0.7,2.9,1.4,4.3,2.1c2.9,1.3,5.8,1.2,8.7,0
		c3.4-1.4,6.8-3,10.1-4.5c2.2-1,4.4-2,6.6-2.9c0.1,0,0.2-0.1,0.4-0.1c0,1,0,2,0,3c0,0.2-0.1,0.2-0.2,0.3c-5.5,2.3-10.8,5.1-16.3,7.3
		c-1.2,0.5-2.4,0.9-3.7,1c-2.4,0.2-4.7-0.3-6.8-1.3c-4.1-1.9-8.1-4.1-12.1-6.3c-0.7-0.4-1.4-0.9-2.2-1.2C0,181.8,0,180.8,0,179.7z"
		/>
	<path fill="#929A9B" d="M22.4,158.8c0.6,0.1,1.1,0.2,1.7,0.3c1.9,0.4,3.6,1.3,5.4,2.2c3.8,1.9,7.4,3.9,11,6
		c0.1,0.1,0.3,0.1,0.4,0.3c0,0.2-0.2,0.2-0.4,0.3c-0.8,0.4-1.6,0.7-2.4,1.1c-0.2,0.1-0.4,0.1-0.6,0c-2.9-1.7-5.9-3.3-8.9-4.8
		c-1.5-0.7-2.9-1.5-4.5-2c-2.6-0.8-5-0.4-7.5,0.6c-3.4,1.4-6.8,2.9-10.2,4.4c-0.3,0.1-0.6,0.1-0.9,0c-0.8-0.5-1.6-0.9-2.4-1.3
		c-0.1-0.1-0.2-0.1-0.2-0.2c0-0.1,0.2-0.1,0.3-0.2c4.1-1.8,8.1-3.7,12.3-5.4c1.3-0.5,2.7-1,4.1-1.2c0,0,0.1,0,0.1-0.1
		C20.6,158.8,21.5,158.8,22.4,158.8z"/>
	<path fill="#929A9B" d="M252,184.6c-0.3,0-0.6,0-0.9,0c-0.5,0.1-0.6-0.2-0.6-0.6c0-0.5-0.1-0.9-0.2-1.4c-0.3,0.3-0.5,0.6-0.8,0.9
		c-2.2,2.2-7,1.8-8.3-1.8c-0.8-2.2-0.8-4.5,0.1-6.6c0.8-1.9,2.3-2.8,4.4-3c1.9-0.1,3.4,0.6,4.5,2.1c0.1-0.1,0.1-0.3,0.1-0.4
		c0-2.4,0-4.9,0-7.3c0-0.4,0.1-0.5,0.5-0.5c1.1,0,1.1,0,1.1,1.1c0,5.2,0,10.4,0,15.6c0,0.1-0.1,0.3,0.1,0.4
		C252,183.7,252,184.1,252,184.6z M250.4,178.6c0-0.5,0-0.8,0-1.2c0-1.9-1.4-3.4-3.4-3.8c-1.9-0.3-3.6,0.6-4.2,2.5
		c-0.5,1.5-0.5,2.9-0.1,4.4c0.5,1.8,1.8,2.8,3.5,2.9c2,0,3.6-1.1,4.1-2.8C250.5,179.9,250.3,179.2,250.4,178.6z"/>
	<path fill="#929A9B" d="M160.2,175.2c1.8,0.6,2.8,1.9,2.9,3.8c0,0.8,0,1.5-0.1,2.3c-0.4,1.8-1.7,3-3.6,3.2
		c-0.5,0.1-1.1,0.1-1.6,0.1c-2.3,0-4.6,0-6.9,0c-0.3,0-0.4-0.1-0.4-0.4c0-5.8,0-11.5,0-17.3c0-0.3,0.1-0.4,0.4-0.4
		c2.3,0,4.5,0,6.8,0c0.6,0,1.1,0.1,1.7,0.2c2,0.5,3.1,2,3.2,4.2c0,1.3-0.2,2.6-1.2,3.6C161,174.8,160.6,175,160.2,175.2z
		 M152.1,179.6c0,1,0,2.1,0,3.1c0,0.2,0,0.4,0.3,0.4c2.1,0,4.2,0.1,6.2-0.1c1.5-0.1,2.5-1,2.7-2.5c0.1-0.7,0.1-1.4-0.1-2.1
		c-0.3-1.1-0.9-1.9-2.1-2.1c-0.4-0.1-0.8-0.1-1.2-0.1c-1.8,0-3.7,0-5.5,0c-0.3,0-0.4,0.1-0.4,0.4
		C152.1,177.5,152.1,178.6,152.1,179.6z M152.1,171.3c0,1,0,2,0,2.9c0,0.2,0,0.4,0.3,0.4c1.9,0,3.9,0.1,5.8-0.1
		c1.3-0.1,2.1-0.7,2.4-1.9c0.2-0.9,0.2-1.8,0-2.7c-0.2-1-0.8-1.5-1.8-1.7c-0.3-0.1-0.7-0.1-1-0.1c-1.8,0-3.5,0-5.3,0
		c-0.3,0-0.4,0.1-0.4,0.4C152.1,169.4,152.1,170.3,152.1,171.3z"/>
	<path fill="#929A9B" d="M50.6,175.6c0-2.8,0-5.7,0-8.5c0-0.4,0.1-0.6,0.5-0.6c1.1,0,1.1,0,1.1,1.1c0,2.2,0,4.3,0,6.5
		c0,0.3,0.1,0.4,0.4,0.4c3,0,6,0,9.1,0c0.4,0,0.5-0.1,0.5-0.5c0-2.4,0-4.7,0-7.1c0-0.4,0.1-0.5,0.5-0.5c1.1,0,1.1,0,1.1,1.1
		c0,5.5,0,11,0,16.5c0,0.4-0.1,0.5-0.5,0.5c-1.1,0-1.1,0-1.1-1.1c0-2.3,0-4.6,0-7c0-0.4-0.1-0.5-0.5-0.5c-3,0-6.1,0-9.1,0
		c-0.4,0-0.4,0.1-0.4,0.4c0,2.6,0,5.1,0,7.7c0,0.4-0.1,0.5-0.4,0.4c-0.4,0-0.9,0.1-1.1-0.1c-0.3-0.2-0.1-0.7-0.1-1.1
		C50.6,180.8,50.6,178.2,50.6,175.6z"/>
	<path fill="#929A9B" d="M20.9,164.5c2.4,0,4.5,0.7,6.6,1.7c2.5,1.2,4.9,2.6,7.4,3.9c0.1,0.1,0.3,0.1,0.3,0.2c0,0.2-0.2,0.2-0.3,0.2
		c-0.8,0.4-1.6,0.8-2.4,1.2c-0.3,0.1-0.5,0.1-0.8,0c-2.1-1.2-4.2-2.3-6.3-3.3c-2.7-1.2-5.3-1.3-8-0.1c-1.7,0.8-3.5,1.5-5.2,2.2
		c-0.2,0.1-0.4,0.1-0.6,0c-0.8-0.5-1.7-0.9-2.5-1.4C9,169,8.8,169,8.8,168.9c0-0.1,0.1-0.1,0.2-0.2c2.8-1.2,5.5-2.5,8.4-3.6
		C18.6,164.7,19.8,164.4,20.9,164.5z"/>
	<path fill="#929A9B" d="M117.1,174.2c0.1-0.1,0-0.3,0-0.4c0-2.4,0-4.8,0-7.2c0-0.4,0.1-0.5,0.5-0.5c1.1,0,1.1,0,1.1,1.1
		c0,5,0,10,0,14.9c0,0.7,0.1,1.5,0.1,2.2c0,0.3-0.1,0.3-0.3,0.3c-1.1,0-1.1,0-1.2-1.1c0-0.3-0.1-0.6-0.1-0.8
		c-0.1-0.1-0.2,0.1-0.2,0.1c-1.3,1.7-3,2.3-5.1,1.9c-2-0.3-3.3-1.6-3.9-3.5c-0.6-2.2-0.6-4.4,0.3-6.5c0.8-1.8,2.4-2.6,4.3-2.7
		c1.8-0.1,3.3,0.5,4.4,2C117,174.1,117.1,174.2,117.1,174.2z M117.1,178.5C117.1,178.5,117.1,178.5,117.1,178.5c0-0.6,0.1-1.3,0-1.9
		c-0.3-1.6-1.9-2.9-3.6-3c-2-0.1-3.3,0.8-3.9,2.6c-0.5,1.5-0.5,3-0.1,4.5c0.4,1.5,1.4,2.5,3.1,2.7c2.7,0.4,4.8-1.9,4.6-3.9
		C117.1,179.1,117.1,178.8,117.1,178.5z"/>
	<path fill="#929A9B" d="M74.6,182.6c-1.5,2.2-4.5,2.7-6.7,2c-1.4-0.5-2.2-1.6-2.2-3.2c0-1.6,0.7-2.7,2.2-3.2
		c1.3-0.5,2.7-0.6,4.1-0.8c0.8-0.1,1.5-0.2,2.3-0.3c0.3,0,0.3-0.1,0.3-0.4c0-1.8-0.6-2.6-2.4-3c-0.6-0.1-1.3-0.2-1.9-0.1
		c-1.3,0.1-2,0.8-2.4,2c-0.1,0.3-0.2,0.4-0.5,0.3c-0.2-0.1-0.5-0.1-0.7-0.1c-0.4,0-0.5-0.1-0.4-0.5c0.5-1.8,1.7-2.8,3.5-3
		c1.2-0.2,2.4-0.1,3.6,0.3c1.7,0.6,2.7,1.9,2.7,3.7c0,1.4,0,2.8,0,4.2c0,1.3,0.1,2.6,0.1,3.9c0,0.3,0,0.4-0.4,0.4c-1,0-1,0-1.1-0.9
		C74.8,183.4,74.7,183,74.6,182.6z M74.6,179.3c0-0.2,0-0.4,0-0.6c0-0.3-0.1-0.4-0.4-0.4c-1.1,0.2-2.1,0.3-3.2,0.5
		c-0.9,0.2-1.9,0.2-2.7,0.7c-0.9,0.5-1.2,1.2-1,2.3c0.1,0.8,0.7,1.3,1.5,1.5c0.8,0.2,1.5,0.2,2.3,0
		C73.3,182.8,74.6,181.3,74.6,179.3z"/>
	<path fill="#929A9B" d="M209.3,175.6c0-2.9,0-5.7,0-8.6c0-0.4,0.1-0.5,0.5-0.5c3.5,0,7.1,0,10.6,0c0.4,0,0.5,0.1,0.5,0.5
		c0,1.1,0,1.1-1.1,1.1c-2.8,0-5.5,0-8.3,0c-0.5,0-0.6,0.1-0.5,0.6c0,1.8,0,3.6,0,5.5c0,0.4,0.1,0.5,0.5,0.5c2.7,0,5.4,0,8.1,0
		c0.4,0,0.5,0.1,0.5,0.5c0,1.1,0,1.1-1.1,1.1c-2.5,0-5,0-7.5,0c-0.4,0-0.5,0.1-0.5,0.5c0,2.5,0,5.1,0,7.6c0,0.4-0.1,0.5-0.5,0.5
		c-0.4,0-0.9,0.2-1.1-0.1c-0.2-0.2-0.1-0.7-0.1-1.1C209.3,180.8,209.3,178.2,209.3,175.6z"/>
	<path fill="#929A9B" d="M96.6,179.1c-1.4,0-2.8,0-4.2,0c-0.3,0-0.4,0.1-0.4,0.4c0.1,1.4,0.5,2.7,1.8,3.4c1.3,0.7,2.7,0.7,4.1,0.2
		c0.7-0.3,1.2-0.9,1.4-1.7c0.1-0.3,0.2-0.4,0.5-0.3c0.3,0.1,0.6,0.1,1,0.1c0.4,0,0.3,0.2,0.3,0.4c-0.3,1-0.9,1.9-1.8,2.4
		c-1.8,1.1-5.3,1.2-7.1-0.6c-0.8-0.8-1.3-1.8-1.5-2.9c-0.3-1.6-0.3-3.2,0.1-4.7c0.6-2.2,2.4-3.7,4.7-3.8c1-0.1,2.1,0,3.1,0.4
		c1.3,0.6,2,1.7,2.4,3.1c0.3,1,0.3,2.1,0.3,3.1c0,0.3-0.2,0.3-0.4,0.3C99.4,179.1,98,179.1,96.6,179.1
		C96.6,179.1,96.6,179.1,96.6,179.1z M95.8,177.7c0.8,0,1.6,0,2.5,0c1.4,0,1.4,0,1.1-1.4c-0.2-1.1-0.7-2.2-1.9-2.6
		c-1.2-0.4-2.3-0.3-3.4,0.2c-1.3,0.6-1.8,1.8-1.9,3.2c-0.1,0.4,0,0.6,0.5,0.6C93.7,177.7,94.7,177.7,95.8,177.7z"/>
	<path fill="#929A9B" d="M170.4,179.1c-1.4,0-2.8,0-4.2,0c-0.3,0-0.4,0.1-0.4,0.4c0.1,0.4,0.1,0.9,0.2,1.3c0.4,1.6,1.7,2.5,3.3,2.6
		c0.5,0,1,0,1.5-0.1c1.1-0.2,1.9-0.9,2.2-1.9c0.1-0.3,0.2-0.4,0.5-0.3c0.3,0.1,0.6,0.1,0.9,0.1c0.4,0,0.4,0.2,0.3,0.4
		c-0.3,1.1-1,2-2,2.5c-1.9,0.9-3.9,0.9-5.8,0c-1.2-0.6-2-1.6-2.4-2.9c-0.6-1.9-0.6-3.8,0-5.7c0.7-2.1,2.5-3.4,4.7-3.5
		c1.1,0,2.2,0,3.2,0.6c1.4,0.7,2,2,2.3,3.5c0.2,0.9,0.2,1.7,0.2,2.6c0,0.3-0.1,0.4-0.4,0.4C173.3,179.1,171.8,179.1,170.4,179.1z
		 M169.6,177.7C169.6,177.7,169.6,177.7,169.6,177.7c0.9,0,1.7,0,2.6,0c1.3,0,1.3,0,1.1-1.3c-0.3-1.7-1.2-2.7-2.7-2.9
		c-2-0.2-4,0.5-4.5,3.1c0,0.2,0,0.4-0.1,0.6c-0.1,0.3,0,0.4,0.3,0.4C167.4,177.7,168.5,177.7,169.6,177.7z"/>
	<path fill="#929A9B" d="M126.8,179.1c-1.4,0-2.8,0-4.2,0c-0.3,0-0.5,0.1-0.4,0.4c0.1,0.3,0.1,0.6,0.1,0.9c0.4,1.9,1.7,3,3.6,3
		c0.4,0,0.9,0,1.3-0.1c1.2-0.2,1.9-0.9,2.2-2c0.1-0.3,0.2-0.4,0.5-0.3c0.3,0.1,0.6,0.1,0.9,0.1c0.4,0,0.4,0.2,0.3,0.4
		c-0.3,1-0.8,1.9-1.8,2.4c-2,1.1-4.2,1.2-6.3,0.1c-1.2-0.6-2-1.7-2.3-3c-0.5-1.8-0.5-3.6,0-5.4c0.6-2.2,2.4-3.6,4.7-3.7
		c1,0,2,0,2.9,0.4c1.6,0.7,2.3,2,2.6,3.5c0.2,0.9,0.2,1.8,0.3,2.7c0,0.3-0.1,0.4-0.4,0.4C129.6,179.1,128.2,179.1,126.8,179.1z
		 M125.9,177.7c1.1,0,2.2,0,3.3,0c0.4,0,0.5-0.1,0.4-0.5c-0.1-0.7-0.2-1.4-0.5-2c-0.3-0.7-0.8-1.2-1.5-1.5c-1.3-0.4-2.6-0.3-3.8,0.5
		c-1,0.7-1.4,1.7-1.5,2.9c-0.1,0.6-0.1,0.6,0.6,0.6C123.9,177.7,124.9,177.7,125.9,177.7z"/>
	<path fill="#929A9B" d="M232.1,178.5c0,0.9-0.1,1.8-0.3,2.7c-0.8,2.7-3.1,3.8-5.7,3.6c-3-0.2-4.8-2.1-5-5.1c-0.1-1.3-0.1-2.7,0.3-4
		c0.6-2.2,2.3-3.5,4.5-3.7c1-0.1,2.1,0,3.1,0.4c1.9,0.8,2.7,2.3,3,4.2C232.1,177.3,232.1,177.9,232.1,178.5z M222.6,178.5
		c0,0.5,0,1.1,0.1,1.6c0.3,2,1.6,3.2,3.5,3.3c2.2,0.1,3.6-0.9,4.1-3c0.3-1.3,0.3-2.5,0-3.8c-0.4-2-1.6-3-3.7-3.1
		c-2-0.1-3.4,1-3.8,2.9C222.7,177.1,222.6,177.8,222.6,178.5z"/>
	<path fill="#929A9B" d="M135.4,174.3c0.9-1.2,2-1.9,3.4-2.1c1.3-0.2,2.6,0,3.7,0.7c1.1,0.7,1.6,1.8,1.6,3.1c0,2.8,0,5.5,0,8.3
		c0,0.3-0.1,0.4-0.4,0.4c-1.2,0-1.2,0-1.2-1.2c0-2.3,0-4.6,0-6.9c0-1.7-0.7-2.6-2.4-2.9c-2.1-0.4-4.2,0.9-4.7,3
		c-0.1,0.2-0.1,0.5-0.1,0.7c0,2.3,0,4.5,0,6.8c0,0.3,0,0.5-0.4,0.5c-1.1,0-1.1,0-1.1-1.1c0-3.1,0-6.3,0-9.4c0-0.5,0-1-0.1-1.5
		c0-0.2,0.1-0.3,0.3-0.3c0,0,0,0,0,0c1,0,1,0,1.2,1C135.2,173.6,135.2,173.9,135.4,174.3z"/>
	<path fill="#929A9B" d="M198.1,182.5c0.6-1.6,1.2-3.1,1.8-4.6c0.7-1.7,1.4-3.5,2.1-5.2c0.1-0.3,0.2-0.4,0.5-0.4c0.3,0,0.7,0,1,0
		c0.3,0,0.4,0,0.3,0.4c-0.6,1.3-1.1,2.7-1.7,4c-1.7,4.1-3.5,8.1-5.1,12.3c-0.1,0.3-0.2,0.4-0.5,0.3c-0.5,0-0.9,0-1.5,0
		c0.4-0.9,0.7-1.7,1.1-2.5c0.3-0.7,0.6-1.5,0.9-2.2c0.1-0.3,0.1-0.5,0-0.8c-1.6-3.7-3.1-7.3-4.6-11c-0.2-0.4-0.2-0.5,0.3-0.5
		c0.4,0.1,1-0.2,1.3,0.1c0.3,0.2,0.4,0.8,0.5,1.2c1.1,2.8,2.2,5.7,3.3,8.5C198,182.2,198.1,182.3,198.1,182.5z"/>
	<path fill="#929A9B" d="M86.6,173.8c-2.5,0-4.9,0-7.3,0c-0.5,0-0.6-0.1-0.6-0.6c0-0.9,0-0.9,0.9-0.9c2.8,0,5.6,0,8.4,0
		c0.4,0,0.4,0.1,0.5,0.5c0,0.6-0.1,1-0.5,1.4c-2.5,2.9-4.9,5.9-7.6,8.7c0,0-0.1,0.1-0.1,0.1c0.1,0.1,0.3,0.1,0.4,0.1
		c2.5,0,5,0,7.6,0c0.4,0,0.5,0.1,0.5,0.5c0,1,0,1-1,1c-3,0-6,0-9,0c-0.4,0-0.5-0.1-0.5-0.5c0-0.5,0.1-1,0.5-1.4
		c2.5-2.9,5-5.9,7.6-8.8C86.5,173.9,86.5,173.9,86.6,173.8z"/>
	<path fill="#929A9B" d="M179.3,168.7c0,1.1,0,2.2,0,3.2c0,0.3,0.1,0.4,0.4,0.4c1,0,2,0,3,0c0.3,0,0.4,0.1,0.4,0.4
		c0,1.1,0,1.1-1,1.1c-0.8,0-1.6,0-2.4,0c-0.2,0-0.3,0-0.3,0.2c0,2.4-0.1,4.7,0.1,7.1c0.1,1.9,1.1,2.4,3.1,2.2
		c0.7-0.1,0.7-0.1,0.8,0.6c0.1,0.8,0.1,0.8-0.7,0.9c-1.3,0.1-2.5,0-3.5-0.9c-0.8-0.7-1.1-1.7-1.2-2.8c-0.1-1.7,0-3.4-0.1-5.1
		c0-0.7,0-1.3,0-2c0-0.3-0.1-0.4-0.4-0.4c-0.5,0-1.1,0-1.6,0c-0.2,0-0.3-0.1-0.3-0.3c-0.1-1.2-0.1-1.2,1.1-1.2c1.1,0,1.1,0,1.1-1.1
		c0-0.5,0-1.1,0-1.6c0-0.3,0.1-0.4,0.4-0.5C178.5,169,178.9,168.8,179.3,168.7z"/>
	<path fill="#929A9B" d="M187.5,177.5c0,1.1-0.1,2.4,0.1,3.7c0.1,0.9,0.3,1.7,1.3,2c0.7,0.2,1.4,0.3,2.1,0.1c0.3-0.1,0.4,0,0.4,0.3
		c0,0.1,0,0.2,0,0.3c0.1,0.8,0.1,0.9-0.8,1c-0.8,0.1-1.7,0-2.5-0.3c-1.3-0.5-1.9-1.5-2.1-2.8c-0.2-1.6-0.1-3.2-0.1-4.8
		c0-1,0-1.9,0-2.9c0-0.3-0.1-0.4-0.3-0.3c-0.5,0-1,0-1.5,0c-0.3,0-0.4-0.1-0.4-0.4c0-1.1,0-1.1,1.1-1.1c1.2,0,1.2,0,1.2-1.2
		c0-0.5,0-1.1,0-1.6c0-0.2,0.1-0.4,0.3-0.4c0.4-0.1,0.9-0.5,1.1-0.3c0.3,0.2,0.1,0.7,0.1,1.1c0,0.7,0,1.3,0,2c0,0.3,0.1,0.4,0.4,0.4
		c1,0,2,0,3,0c0.3,0,0.4,0.1,0.4,0.4c0,1,0,1-1,1c-0.8,0-1.5,0-2.3,0c-0.4,0-0.5,0.1-0.5,0.5C187.6,175.2,187.5,176.2,187.5,177.5z"
		/>
	<path fill="#929A9B" d="M14.9,172.2c1.4-0.7,2.7-1.3,4.2-1.8c1.6-0.5,3.2-0.5,4.8,0.1c1.7,0.7,3.4,1.5,5.1,2.3
		c0.1,0.1,0.3,0.1,0.4,0.3c-1,0.5-2.1,1-3.1,1.4c-0.2,0.1-0.3,0-0.4-0.1c-0.8-0.4-1.6-0.7-2.4-1.1c-1.4-0.7-2.8-0.8-4.2,0
		c-0.9,0.5-1.6,0.4-2.4-0.1c-0.6-0.4-1.2-0.7-1.9-1C15,172.3,15,172.3,14.9,172.2z"/>
	<path fill="#929A9B" d="M235,174.4c0.2-0.3,0.4-0.5,0.6-0.7c1.2-1.4,2.8-1.8,4.6-1.5c0.3,0,0.4,0.2,0.3,0.4c-0.1,0.4,0,0.8-0.1,1.1
		c-0.2,0.3-0.6,0-1,0c-1.8,0-3.1,0.7-4,2.3c-0.2,0.4-0.3,0.9-0.3,1.3c0,2.3,0,4.6,0,6.9c0,0.3-0.1,0.5-0.4,0.4c-1.1,0-1.1,0-1.1-1.2
		c0-1.1,0-2.2,0-3.3c0-2.5,0-5-0.1-7.5c0-0.2,0-0.3,0.3-0.3c1.1-0.1,1.1-0.1,1.2,1.1C234.9,173.7,235,174,235,174.4z"/>
	<path fill="#929A9B" d="M103.7,175.3c0-2.9,0-5.8,0-8.8c0-0.4,0.1-0.5,0.5-0.5c1,0,1,0,1,1c0,5.7,0,11.4,0,17.1
		c0,0.3-0.1,0.5-0.4,0.4c-1.1,0-1.1,0-1.1-1.1C103.7,180.8,103.7,178.1,103.7,175.3z"/>
	<path fill="#929A9B" d="M84.9,194.9c0-1.5,0-2.9,0-4.3c0-0.4,0.1-0.5,0.5-0.5c0.4,0,0.5,0.1,0.5,0.5c0,2.5,0,5,0,7.6
		c0,0.9,0,1.7,0.1,2.6c0,0.2,0.1,0.4-0.2,0.4c-0.2,0-0.6,0.2-0.6-0.3c0-0.3-0.1-0.5-0.1-0.9c-0.5,0.6-0.9,1-1.6,1.2
		c-1.8,0.4-3.7-0.3-4-3c-0.1-0.9-0.1-1.8,0.3-2.7c0.8-2,3.6-2.5,5-0.9C84.7,194.7,84.8,194.8,84.9,194.9z M84.9,197.6
		c0-0.3,0-0.6,0-0.8c0-1.1-0.8-2-1.9-2.2c-1.1-0.2-2.1,0.3-2.5,1.4c-0.3,0.9-0.3,1.8-0.1,2.7c0.3,1.1,1,1.7,2.1,1.7
		c1.1,0,2.1-0.7,2.4-1.7C85,198.3,84.9,197.9,84.9,197.6z"/>
	<path fill="#929A9B" d="M92.2,200c-1.1,1.2-2.3,1.4-3.7,1.2c-0.9-0.2-1.5-0.9-1.5-1.8c-0.1-1,0.4-1.7,1.3-2c1-0.4,2.1-0.4,3.1-0.6
		c0.3-0.1,0.7,0.1,0.8-0.3c0.1-0.5,0-1-0.4-1.4c-0.6-0.5-1.3-0.5-2-0.5c-0.8,0-1.2,0.5-1.5,1.2c-0.2,0.4-0.6,0.1-0.8,0.1
		c-0.3,0-0.1-0.3-0.1-0.4c0.2-0.9,0.8-1.4,1.7-1.6c0.8-0.2,1.6-0.2,2.3,0c1.1,0.3,1.7,1.1,1.7,2.3c0,1.6-0.1,3.1,0.1,4.7
		c0,0.1,0,0.4-0.2,0.3c-0.2,0-0.6,0.2-0.6-0.2C92.3,200.6,92.3,200.3,92.2,200z M92.2,198c0-0.6,0-0.6-0.6-0.5
		c-0.3,0-0.6,0.1-0.8,0.1c-0.7,0.2-1.5,0.1-2.2,0.5c-0.4,0.2-0.6,0.6-0.6,1.1c0,0.4,0.1,0.8,0.5,1C90,201,92.4,199.6,92.2,198z"/>
	<path fill="#929A9B" d="M50.7,195.7c0-1.6,0-3.3,0-4.9c0-0.4,0.1-0.4,0.4-0.4c2,0,4,0,6,0c0.4,0,0.4,0.1,0.4,0.5
		c0,0.4-0.1,0.5-0.5,0.5c-1.7,0-3.3,0-5,0c-0.3,0-0.5,0.1-0.5,0.4c0,1,0,2,0,3c0,0.3,0.1,0.4,0.4,0.4c1.5,0,3,0,4.5,0
		c0.4,0,0.4,0.2,0.4,0.5c0,0.4-0.1,0.5-0.5,0.5c-1.5,0-3,0-4.5,0c-0.3,0-0.4,0.1-0.4,0.4c0,1.4,0,2.8,0,4.2c0,0.4-0.1,0.5-0.5,0.5
		c-0.4,0-0.5-0.1-0.5-0.5C50.7,199,50.7,197.4,50.7,195.7C50.7,195.7,50.7,195.7,50.7,195.7z"/>
	<path fill="#929A9B" d="M57.6,197.5c0-0.5,0-0.9,0.1-1.4c0.4-1.5,1.6-2.4,3.3-2.4c1.6,0,2.7,1,3,2.6c0.2,0.9,0.2,1.8-0.1,2.7
		c-0.4,1.6-1.5,2.3-3.4,2.3c-1.4,0-2.6-1-2.9-2.4C57.7,198.4,57.6,197.9,57.6,197.5z M63.2,197.5c0-0.2,0-0.5-0.1-0.8
		c-0.2-1.3-0.9-2-2-2.1c-1.3-0.1-2.1,0.5-2.4,1.7c-0.2,0.8-0.2,1.6,0,2.4c0.3,1.1,1.1,1.7,2.2,1.7c1.1,0,1.9-0.6,2.2-1.7
		C63.2,198.3,63.2,197.9,63.2,197.5z"/>
	<path fill="#929A9B" d="M108.5,197.5c0,0.8-0.1,1.7-0.6,2.4c-0.8,1.2-2,1.5-3.3,1.3c-1.2-0.2-2.1-0.9-2.5-2.1
		c-0.4-1.3-0.4-2.6,0.2-3.8c0.6-1.2,1.9-1.8,3.5-1.6c1.3,0.2,2.2,1.1,2.5,2.5C108.4,196.7,108.5,197.1,108.5,197.5z M107.5,197.5
		c0-0.3,0-0.7-0.1-1c-0.2-1.2-0.9-1.9-2-1.9c-1.3-0.1-2.1,0.5-2.4,1.8c-0.2,0.8-0.1,1.5,0,2.3c0.4,1.9,2.6,2.1,3.7,1.1
		C107.4,199.2,107.5,198.4,107.5,197.5z"/>
	<path fill="#929A9B" d="M73.2,195c0.8-1.1,1.9-1.4,3.1-1.2c1.3,0.2,2.1,1.1,2.1,2.4c0,1.5,0,3,0,4.6c0,0.5-0.3,0.4-0.5,0.4
		c-0.3,0-0.4-0.1-0.4-0.4c0-1.4,0-2.8,0-4.2c0-1.6-1.3-2.5-2.8-1.8c-0.9,0.4-1.4,1.1-1.4,2.1c0,1.3,0,2.5,0,3.8
		c0,0.4-0.2,0.4-0.5,0.4c-0.3,0-0.5,0-0.5-0.4c0-2.2,0-4.4,0-6.5c0-0.2,0-0.4,0.2-0.3c0.2,0.1,0.6-0.2,0.6,0.2
		C73.1,194.4,73.1,194.6,73.2,195z"/>
	<path fill="#929A9B" d="M110.5,195c0.8-1.1,1.8-1.4,3.1-1.2c1.3,0.2,2.1,1.1,2.1,2.4c0,1.5,0,3,0,4.6c0,0.4-0.2,0.4-0.5,0.4
		c-0.3,0-0.5,0-0.5-0.4c0-1.4,0-2.8,0-4.2c0-1.6-1.4-2.5-2.9-1.8c-0.9,0.4-1.4,1.1-1.4,2.1c0,1.3,0,2.5,0,3.8c0,0.5-0.2,0.4-0.5,0.4
		c-0.3,0-0.4-0.1-0.4-0.4c0-2.1,0.1-4.3-0.1-6.4c0-0.2-0.1-0.5,0.2-0.4c0.2,0,0.6-0.2,0.6,0.3C110.3,194.4,110.4,194.6,110.5,195z"
		/>
	<path fill="#929A9B" d="M70,200c-0.5,0.6-1.1,1.1-1.8,1.2c-0.7,0.1-1.4,0.1-2.1-0.3c-0.8-0.4-1.2-1-1.2-1.9c0-1.6,0-3.3,0-4.9
		c0-0.5,0.3-0.2,0.5-0.3c0.2,0,0.4-0.1,0.4,0.3c0,1.4,0,2.8,0,4.2c0,1.5,1.1,2.3,2.6,1.9c1-0.3,1.7-1.3,1.6-2.2
		c-0.1-1.3,0-2.6,0-3.8c0-0.4,0.2-0.4,0.5-0.4c0.3,0,0.5,0,0.5,0.4c0,1.4,0,2.8,0,4.2c0,0.8,0.1,1.6,0.1,2.3c0,0.2,0,0.4-0.2,0.3
		c-0.2,0-0.6,0.2-0.6-0.2C70.1,200.6,70.1,200.4,70,200z"/>
	<path fill="#929A9B" d="M96.1,191.7c0,0.5,0,1,0,1.5c-0.1,0.5,0.1,0.6,0.6,0.6c0.4,0,0.9,0,1.4,0c0.4,0,0.3,0.2,0.3,0.4
		c0,0.2,0.1,0.4-0.3,0.4c-0.5,0-1.1,0-1.6,0c-0.2,0-0.3,0-0.3,0.2c0,1.4-0.1,2.8,0.1,4.2c0.1,1,0.6,1.3,1.7,1.2
		c0.5-0.1,0.5,0.2,0.6,0.5c0.1,0.4-0.2,0.4-0.5,0.4c-0.3,0-0.6,0-0.9,0c-1.2-0.2-1.8-0.9-1.8-2.4c0-1.2,0-2.5,0-3.7
		c0-0.3-0.1-0.5-0.4-0.4c-0.1,0-0.3,0-0.4,0c-0.4,0.1-0.5-0.1-0.5-0.5c0-0.3,0.1-0.4,0.4-0.4c0.9,0,0.9,0,0.9-0.9c0-0.1,0-0.2,0-0.2
		C95.2,191.9,95.2,191.9,96.1,191.7z"/>
	<path fill="#929A9B" d="M100.5,197.5c0,1.1,0,2.2,0,3.3c0,0.4-0.2,0.4-0.4,0.4c-0.3,0-0.5,0-0.5-0.4c0-2.2,0-4.3,0-6.5
		c0-0.4,0.3-0.3,0.5-0.4c0.3,0,0.4,0,0.4,0.4C100.5,195.3,100.5,196.4,100.5,197.5z"/>
	<path fill="#929A9B" d="M41.1,179.8c-1.1,0.5-2.1,0.9-3.1,1.4c-0.2,0.1-0.3,0.1-0.4,0c-0.5-0.3-1-0.6-1.6-1c0.8-0.4,1.5-0.6,2.1-1
		c0.7-0.4,1.4-0.5,2.1,0.1C40.4,179.5,40.7,179.6,41.1,179.8z"/>
	<path fill="#929A9B" d="M41.1,173.7c-1.1,0.5-2,0.9-3,1.4c-0.1,0-0.2,0.1-0.3,0c-0.5-0.3-1-0.6-1.5-0.9c-0.2-0.1-0.1-0.2,0-0.3
		c0.9-0.4,1.8-0.9,2.7-1.3c0.1,0,0.2-0.1,0.3,0C39.9,173,40.5,173.3,41.1,173.7z"/>
	<path fill="#929A9B" d="M30.3,176.9c1.1-0.5,2.1-1,3.1-1.5c0.1-0.1,0.2,0,0.3,0c0.4,0.2,0.8,0.5,1.2,0.7c0.3,0.1,0.2,0.3,0,0.4
		c-0.9,0.4-1.8,0.8-2.7,1.3c-0.1,0.1-0.2,0.1-0.3,0C31.4,177.5,30.9,177.3,30.3,176.9z"/>
	<path fill="#929A9B" d="M99.5,191.6c0-0.6,0-0.6,0.7-0.6c0.6,0,0.5,0.3,0.5,0.6c0,0.3,0.1,0.7-0.5,0.6
		C99.5,192.2,99.5,192.2,99.5,191.6z"/>
</g>
</svg>
