<?xml version="1.0" encoding="utf-8"?>
<!-- Generator: Adobe Illustrator 19.2.1, SVG Export Plug-In . SVG Version: 6.00 Build 0)  -->
<svg version="1.1" id="Layer_1" xmlns="http://www.w3.org/2000/svg" xmlns:xlink="http://www.w3.org/1999/xlink" x="0px" y="0px"
	 viewBox="0 0 82.17 82.17" enable-background="new 0 0 82.17 82.17" xml:space="preserve">
<g>
	<path fill="#F3F4F4" d="M41.16,81.17c-21.78,0-39.5-17.72-39.5-39.5s17.72-39.5,39.5-39.5s39.5,17.72,39.5,39.5
		S62.95,81.17,41.16,81.17z M41.16,4.16c-20.68,0-37.5,16.82-37.5,37.5s16.82,37.5,37.5,37.5s37.5-16.82,37.5-37.5
		S61.84,4.16,41.16,4.16z"/>
</g>
<g>
	<g>
		<path fill="#F3F4F4" d="M41,54.09c-10.2,0-18.5-8.3-18.5-18.5s8.3-18.5,18.5-18.5s18.5,8.3,18.5,18.5S51.2,54.09,41,54.09z
			 M41,18.85c-9.23,0-16.74,7.51-16.74,16.74S31.77,52.32,41,52.32s16.74-7.51,16.74-16.74S50.23,18.85,41,18.85z"/>
	</g>
</g>
<g>
	<g>
		<path fill="#F3F4F4" d="M39.92,69.38c-0.49,0-1-0.43-1-0.97V28.97c0-0.53,0.51-0.97,1-0.97s1,0.43,1,0.97v39.45
			C40.92,68.95,40.41,69.38,39.92,69.38z"/>
	</g>
</g>
<g>
	<g>
		<path fill="#F3F4F4" d="M40.46,46.59c-0.27,0-0.54-0.13-0.71-0.36c-0.29-0.39-0.2-0.94,0.19-1.23l8.93-6.49
			c0.39-0.29,0.94-0.2,1.23,0.19s0.2,0.94-0.19,1.23l-8.93,6.49C40.82,46.53,40.64,46.59,40.46,46.59z"/>
	</g>
</g>
<g>
	<g>
		<path fill="#F3F4F4" d="M39.76,40.42c-0.17,0-0.35-0.04-0.5-0.14l-9.14-5.49c-0.4-0.24-0.5-0.72-0.23-1.07
			c0.28-0.35,0.82-0.44,1.22-0.2l9.14,5.49c0.4,0.24,0.5,0.72,0.23,1.07C40.31,40.31,40.04,40.42,39.76,40.42z"/>
	</g>
</g>
<g>
</g>
<g>
</g>
<g>
</g>
<g>
</g>
<g>
</g>
<g>
</g>
<g>
</g>
<g>
</g>
<g>
</g>
<g>
</g>
<g>
</g>
<g>
</g>
<g>
</g>
<g>
</g>
<g>
</g>
</svg>
